<?xml version="1.0" encoding="UTF-8" standalone="no"?>
<svg xmlns="http://www.w3.org/2000/svg" xmlns:xlink="http://www.w3.org/1999/xlink" xmlns:scade="http://www.scade.io/v0.1" eObject-URI="main.page#/0" widget-name="main" width="428" height="926">
  <rect template-id="background" width="100%" height="100%" fill="#21222c" />
  <svg template-id="content-box">
    <g template-id="content">
      <svg widget-name="NavBar" eObject-URI="main.page#/0/@children.0" width="428" height="66">
        <svg template-id="content-box">
          <g template-id="content">
            <svg widget-name="profileLabel" eObject-URI="main.page#/0/@children.0/@children.0" x="5" y="5" width="120" height="56">
              <svg template-id="content-box" x="20" y="20" width="100" height="36">
                <g template-id="content">
                  <text alignment-baseline="central" font-size="32" font-family="Arial-BoldMT" font-style="normal" text-decoration="none" template-id="node-text" x="0" y="18" fill="#ffffff">Profile</text>
                </g>
              </svg>
            </svg>
            <svg widget-name="settingsIcon" eObject-URI="main.page#/0/@children.0/@children.1" x="351" y="7" width="72" height="52">
              <svg template-id="content-box" x="20" y="20" width="32" height="32">
                <g template-id="content">
                  <svg viewBox="0 0 32 32" xmlns="http://www.w3.org/2000/svg" template-id="content-background" width="32" height="32" fill="none">
                    <path stroke-width="2" d="M 18.1149 7 C 18.1209 7 18.1255 7.00525 18.1248 7.01121 C 17.9923 8.15791 18.5668 9.32414 19.6869 9.93793 C 20.7345 10.5121 21.9845 10.4522 22.9437 9.88369 C 22.9484 9.88086 22.9546 9.88245 22.9574 9.88724 L 24.9947 13.3681 C 24.9976 13.373 24.9958 13.3793 24.9908 13.382 C 24.0263 13.8957 23.3746 14.8757 23.3746 16.0001 C 23.3746 17.1245 24.0263 18.1044 24.9907 18.6181 C 24.9957 18.6208 24.9975 18.6271 24.9947 18.632 L 22.9574 22.1128 C 22.9546 22.1176 22.9484 22.1192 22.9437 22.1163 C 21.9845 21.5479 20.7345 21.488 19.6869 22.0621 C 18.5669 22.6759 17.9924 23.8421 18.1248 24.9888 C 18.1255 24.9947 18.1208 25 18.1149 25 H 13.8843 C 13.8783 25 13.8736 24.9947 13.8743 24.9888 C 14.0068 23.8421 13.4323 22.6759 12.3123 22.0621 C 11.2649 21.4881 10.0152 21.5478 9.05612 22.1159 C 9.05134 22.1188 9.04516 22.1172 9.04236 22.1124 L 7.00535 18.632 C 7.00247 18.6271 7.00429 18.6208 7.00931 18.6181 C 7.97372 18.1044 8.6254 17.1245 8.6254 16.0001 C 8.6254 14.8757 7.97369 13.8957 7.00924 13.382 C 7.00421 13.3793 7.0024 13.373 7.00528 13.3681 L 9.04234 9.88763 C 9.04515 9.88283 9.05133 9.88125 9.05611 9.88408 C 10.0152 10.4522 11.2649 10.5119 12.3123 9.93793 C 13.4323 9.32414 14.0068 8.15791 13.8743 7.01121 C 13.8736 7.00525 13.8783 7 13.8843 7 L 18.1149 7 z" stroke="#ffffff" />
                    <circle stroke-width="2" cx="16" cy="16" r="3" stroke="#ffffff" />
                  </svg>
                  <text text-anchor="middle" alignment-baseline="central" font-size="17" font-family="ArialMT" font-style="normal" text-decoration="none" template-id="node-text" x="16" y="16" fill="#446ab3" />
                </g>
              </svg>
            </svg>
          </g>
        </svg>
      </svg>
      <svg widget-name="UpperSection" eObject-URI="main.page#/0/@children.1" y="232" width="428" height="351">
        <svg template-id="content-box">
          <g template-id="content">
            <svg widget-name="starIcon" eObject-URI="main.page#/0/@children.1/@children.0" x="15" y="5" width="398" height="128">
              <svg template-id="content-box" x="20" width="358" height="128">
                <g template-id="content">
                  <svg viewBox="0 0 128 128" template-id="content-background" xmlns="http://www.w3.org/2000/svg" x="115" width="128" height="128" fill="none">
                    <circle cx="64" cy="64" r="64" fill="#d0e16" />
                    <path stroke-width="6" d="M 63.905 41.6237 C 63.935 41.5319 64.065 41.5319 64.095 41.6237 L 69.6634 58.6422 C 69.6647 58.6463 69.6686 58.649 69.6729 58.649 H 87.6905 C 87.7875 58.649 87.8277 58.7734 87.749 58.8301 L 73.1731 69.3465 C 73.1696 69.3491 73.1681 69.3536 73.1695 69.3577 L 78.7373 86.3747 C 78.7674 86.4667 78.6623 86.5435 78.5838 86.4869 L 64.0059 75.9691 C 64.0024 75.9665 63.9976 75.9665 63.9941 75.9691 L 49.4162 86.4869 C 49.3377 86.5435 49.2326 86.4667 49.2627 86.3747 L 54.8305 69.3577 C 54.8319 69.3536 54.8304 69.3491 54.8269 69.3465 L 40.251 58.8301 C 40.1723 58.7734 40.2125 58.649 40.3095 58.649 H 58.3271 C 58.3314 58.649 58.3353 58.6463 58.3366 58.6422 L 63.905 41.6237 z" stroke="#323441" />
                  </svg>
                  <text text-anchor="middle" alignment-baseline="central" font-size="17" font-family="ArialMT" font-style="normal" text-decoration="none" template-id="node-text" x="179" y="64" fill="#446ab3" />
                </g>
              </svg>
            </svg>
            <svg widget-name="reviewsAndRatingLabel" eObject-URI="main.page#/0/@children.1/@children.1" x="15" y="133" width="398" height="107">
              <svg template-id="content-box" width="398" height="107">
                <g template-id="content">
                  <text text-anchor="middle" alignment-baseline="central" font-size="20" font-family="Microsoft Sans Serif" font-style="normal" text-decoration="none" template-id="node-text" x="199" y="53.5" fill="#ffffff">Sign in to access Reviews and Rating</text>
                </g>
              </svg>
            </svg>
            <svg widget-name="keeptrackLabel" eObject-URI="main.page#/0/@children.1/@children.2" x="15" y="240" width="398" height="106">
              <svg template-id="content-box" width="398" height="106">
                <g template-id="content">
                  <text alignment-baseline="central" font-size="14" font-family="ArialMT" font-style="normal" text-decoration="none" maxWidth="398" template-id="node-text" x="0" y="0" fill="#ffffff">Save shows and movies to keep track of what you want to watch</text>
                </g>
              </svg>
            </svg>
          </g>
        </svg>
      </svg>
      <svg widget-name="SigninActionView" eObject-URI="main.page#/0/@children.2" y="583" width="428" height="291">
        <svg template-id="content-box">
          <g template-id="content">
            <svg widget-name="signinButton" eObject-URI="main.page#/0/@children.2/@children.0" x="38" y="60" width="351" height="58">
              <svg template-id="content-box" x="20" width="311" height="58">
                <g template-id="content">
                  <svg viewBox="0 0 311 58" xmlns="http://www.w3.org/2000/svg" template-id="content-background" width="311" height="58" fill="none">
                    <rect width="311" height="58" rx="12" fill="#ff3399" />
                    <path d="M 133.466 35.2109 C 136.63 35.2109 138.572 33.6465 138.572 31.168 C 138.572 29.2432 137.412 28.1621 134.723 27.626 L 133.387 27.3535 C 131.884 27.0547 131.277 26.5713 131.277 25.7891 C 131.277 24.8574 132.147 24.2422 133.457 24.2422 C 134.547 24.2422 135.364 24.6377 135.786 25.5957 C 136.085 26.1406 136.454 26.3779 137.052 26.3779 C 137.729 26.3779 138.186 25.9473 138.186 25.3145 C 138.186 25.0859 138.15 24.9014 138.089 24.7256 C 137.526 23.0732 135.777 22.0977 133.457 22.0977 C 130.636 22.0977 128.614 23.6357 128.614 25.9561 C 128.614 27.8457 129.854 29.0586 132.385 29.5596 L 133.729 29.8232 C 135.32 30.1484 135.918 30.623 135.918 31.458 C 135.918 32.3896 134.951 33.0752 133.527 33.0752 C 132.314 33.0752 131.321 32.6357 130.908 31.6689 C 130.592 31.1064 130.231 30.8955 129.687 30.8955 C 129.001 30.8955 128.518 31.3613 128.518 32.0645 C 128.518 32.3018 128.57 32.5479 128.658 32.7764 C 129.168 34.165 130.847 35.2109 133.466 35.2109 z M 141.306 24.4092 C 142.079 24.4092 142.677 23.8203 142.677 23.082 C 142.677 22.335 142.079 21.7549 141.306 21.7549 C 140.532 21.7549 139.935 22.335 139.935 23.082 C 139.935 23.8203 140.532 24.4092 141.306 24.4092 z M 141.306 35.1846 C 142.097 35.1846 142.589 34.6836 142.589 33.8486 V 26.7295 C 142.589 25.8945 142.097 25.3848 141.306 25.3848 C 140.506 25.3848 140.022 25.8945 140.022 26.7295 V 33.8486 C 140.022 34.6836 140.506 35.1846 141.306 35.1846 z M 148.513 38.542 C 151.545 38.5596 153.32 37.083 153.32 34.6309 V 26.6855 C 153.32 25.8154 152.784 25.3848 152.046 25.3848 C 151.308 25.3848 150.754 25.8154 150.754 26.6855 V 27.2041 H 150.701 C 150.209 26.1406 149.181 25.4287 147.827 25.4287 C 145.401 25.4287 143.96 27.1777 143.96 30.1309 C 143.96 33.0049 145.437 34.7979 147.783 34.7979 C 149.146 34.7979 150.244 34.1211 150.684 33.1104 H 150.736 V 34.6133 C 150.736 35.791 149.91 36.5645 148.504 36.5557 C 147.651 36.5469 146.983 36.1865 146.289 35.5273 C 145.999 35.2637 145.735 35.1582 145.401 35.1582 C 144.76 35.1582 144.355 35.5625 144.355 36.0986 C 144.355 36.3359 144.408 36.5732 144.549 36.8105 C 145.155 37.8037 146.588 38.5332 148.513 38.542 z M 148.653 32.8906 C 147.379 32.8906 146.588 31.8799 146.588 30.1572 C 146.588 28.4521 147.388 27.3799 148.653 27.3799 C 149.937 27.3799 150.763 28.4697 150.763 30.166 C 150.763 31.8711 149.937 32.8906 148.653 32.8906 z M 156.273 35.1846 C 157.029 35.1846 157.557 34.7275 157.557 33.8486 V 29.5947 C 157.557 28.373 158.286 27.5293 159.438 27.5293 C 160.589 27.5293 161.169 28.2324 161.169 29.4629 V 33.8486 C 161.169 34.7275 161.696 35.1846 162.452 35.1846 C 163.199 35.1846 163.735 34.7275 163.735 33.8486 V 28.9268 C 163.735 26.7207 162.558 25.4023 160.466 25.4023 C 159.016 25.4023 158.066 26.0439 157.565 27.2129 H 157.513 V 26.6855 C 157.513 25.877 157.003 25.3848 156.229 25.3848 C 155.456 25.3848 154.99 25.877 154.99 26.6768 V 33.8486 C 154.99 34.7275 155.526 35.1846 156.273 35.1846 z M 170.477 35.167 C 171.312 35.167 171.804 34.6572 171.804 33.7871 V 23.5303 C 171.804 22.6514 171.312 22.1416 170.477 22.1416 C 169.642 22.1416 169.149 22.6514 169.149 23.5303 V 33.7871 C 169.149 34.6572 169.642 35.167 170.477 35.167 z M 174.977 35.1846 C 175.732 35.1846 176.26 34.7275 176.26 33.8486 V 29.5947 C 176.26 28.373 176.989 27.5293 178.141 27.5293 C 179.292 27.5293 179.872 28.2324 179.872 29.4629 V 33.8486 C 179.872 34.7275 180.399 35.1846 181.155 35.1846 C 181.902 35.1846 182.438 34.7275 182.438 33.8486 V 28.9268 C 182.438 26.7207 181.261 25.4023 179.169 25.4023 C 177.719 25.4023 176.77 26.0439 176.269 27.2129 H 176.216 V 26.6855 C 176.216 25.877 175.706 25.3848 174.933 25.3848 C 174.159 25.3848 173.693 25.877 173.693 26.6768 V 33.8486 C 173.693 34.7275 174.229 35.1846 174.977 35.1846 z" fill="#ffffff" />
                  </svg>
                  <text text-anchor="middle" alignment-baseline="central" font-size="17" font-family="ArialMT" font-style="normal" text-decoration="none" template-id="node-text" x="155.5" y="29" fill="#446ab3" />
                </g>
              </svg>
            </svg>
          </g>
        </svg>
      </svg>
      <svg widget-name="TabBar" eObject-URI="main.page#/0/@children.3" y="874" width="428" height="52">
        <svg template-id="content-box">
          <g template-id="content">
            <svg widget-name="tabBarItem1" eObject-URI="main.page#/0/@children.3/@children.0" width="107" height="52">
              <svg template-id="content-box">
                <g template-id="content">
                  <svg widget-name="homeIcon" eObject-URI="main.page#/0/@children.3/@children.0/@children.0" width="107" height="52">
                    <svg template-id="content-box" x="20" width="67" height="52">
                      <g template-id="content">
                        <svg viewBox="0 0 80 32" template-id="content-background" xmlns="http://www.w3.org/2000/svg" x="-6.5" y="10" width="80" height="32" fill="none">
                          <path stroke-width="3" stroke-linejoin="round" stroke-linecap="round" d="M 50.6727 13.9967 L 40.672 4.7641 C 40.4879 4.59415 40.2481 4.49999 39.9993 4.5 C 39.7505 4.50001 39.5106 4.59419 39.3266 4.76414 L 29.3273 13.9967 C 29.2242 14.0919 29.1418 14.2078 29.0855 14.3372 C 29.0291 14.4666 29 14.6065 29 14.748 V 26.4845 C 29 26.7538 29.1054 27.0121 29.2929 27.2026 C 29.4804 27.393 29.7348 27.5 30 27.5 H 50 C 50.2652 27.5 50.5196 27.393 50.7071 27.2026 C 50.8946 27.0121 51 26.7538 51 26.4845 V 14.748 C 51 14.6066 50.9709 14.4666 50.9145 14.3372 C 50.8582 14.2078 50.7758 14.0918 50.6727 13.9967 z" stroke="#ffffff" />
                        </svg>
                        <text text-anchor="middle" alignment-baseline="central" font-size="17" font-family="ArialMT" font-style="normal" text-decoration="none" template-id="node-text" x="33.5" y="26" fill="#446ab3" />
                      </g>
                    </svg>
                  </svg>
                </g>
              </svg>
            </svg>
            <svg widget-name="tabBarItem2" eObject-URI="main.page#/0/@children.3/@children.1" x="107" width="107" height="52">
              <svg template-id="content-box">
                <g template-id="content">
                  <svg widget-name="searchIcon" eObject-URI="main.page#/0/@children.3/@children.1/@children.0" width="107" height="52">
                    <svg template-id="content-box" x="20" width="67" height="52">
                      <g template-id="content">
                        <svg viewBox="0 0 80 32" template-id="content-background" xmlns="http://www.w3.org/2000/svg" x="-6.5" y="10" width="80" height="32" fill="none">
                          <path stroke-width="3" stroke-linejoin="round" stroke-linecap="round" d="M 38.5 25 C 44.299 25 49 20.299 49 14.5 C 49 8.70101 44.299 4 38.5 4 C 32.701 4 28 8.70101 28 14.5 C 28 20.299 32.701 25 38.5 25 z" stroke="#ffffff" />
                          <path stroke-width="3" stroke-linejoin="round" stroke-linecap="round" d="M 45.9242 21.925 L 51.9993 28.0001" stroke="#ffffff" />
                        </svg>
                        <text text-anchor="middle" alignment-baseline="central" font-size="17" font-family="ArialMT" font-style="normal" text-decoration="none" template-id="node-text" x="33.5" y="26" fill="#446ab3" />
                      </g>
                    </svg>
                  </svg>
                </g>
              </svg>
            </svg>
            <svg widget-name="tabBarItem3" eObject-URI="main.page#/0/@children.3/@children.2" x="214" width="107" height="52">
              <svg template-id="content-box">
                <g template-id="content">
                  <svg widget-name="favoriteIcon" eObject-URI="main.page#/0/@children.3/@children.2/@children.0" width="107" height="52">
                    <svg template-id="content-box" x="20" width="67" height="52">
                      <g template-id="content">
                        <svg viewBox="0 0 80 32" template-id="content-background" xmlns="http://www.w3.org/2000/svg" x="-6.5" y="10" width="80" height="32" fill="none">
                          <path stroke-width="3" d="M 39.9997 26.5 C 15.9106 13.4942 32.7733 -0.62445 39.9997 8.30331 C 47.227 -0.624454 64.0897 13.4942 39.9997 26.5 z" stroke="#ffffff" />
                        </svg>
                        <text text-anchor="middle" alignment-baseline="central" font-size="17" font-family="ArialMT" font-style="normal" text-decoration="none" template-id="node-text" x="33.5" y="26" fill="#446ab3" />
                      </g>
                    </svg>
                  </svg>
                </g>
              </svg>
            </svg>
            <svg widget-name="tabBarItem4" eObject-URI="main.page#/0/@children.3/@children.3" x="321" width="107" height="52">
              <svg template-id="content-box">
                <g template-id="content">
                  <svg widget-name="profileIcon" eObject-URI="main.page#/0/@children.3/@children.3/@children.0" width="107" height="52">
                    <svg template-id="content-box" x="20" width="67" height="52">
                      <g template-id="content">
                        <svg viewBox="0 0 80 32" template-id="content-background" xmlns="http://www.w3.org/2000/svg" x="-6.5" y="10" width="80" height="32" fill="none">
                          <path d="M 12.7016 13.1504 C 13.4946 13.1504 13.9526 12.6787 13.9526 11.8447 V 10.1084 H 15.5659 C 17.7602 10.1084 19.271 8.73438 19.271 6.62891 C 19.271 4.50977 17.8354 3.13574 15.7163 3.13574 H 12.7016 C 11.9087 3.13574 11.4438 3.61426 11.4438 4.44824 V 11.8447 C 11.4438 12.6787 11.9087 13.1504 12.7016 13.1504 z M 13.9526 8.22168 V 5.05664 H 15.0532 C 16.1059 5.05664 16.7348 5.61035 16.7348 6.63574 C 16.7348 7.66797 16.1059 8.22168 15.0395 8.22168 H 13.9526 z M 21.923 13.1572 C 22.716 13.1572 23.174 12.6787 23.174 11.8516 V 9.54785 H 24.6096 L 26.0725 12.1797 C 26.4963 12.9453 26.7561 13.1572 27.3645 13.1572 C 28.0959 13.1572 28.6154 12.6787 28.6154 12.0156 C 28.6154 11.7217 28.5676 11.5166 28.3488 11.1543 L 27.1389 9.09668 C 28.1437 8.59082 28.677 7.55176 28.677 6.38965 C 28.677 4.35254 27.3508 3.13574 24.8898 3.13574 H 21.923 C 21.1301 3.13574 20.6652 3.61426 20.6652 4.44824 V 11.8516 C 20.6652 12.6787 21.1301 13.1572 21.923 13.1572 z M 23.174 7.83203 V 5.0293 H 24.6369 C 25.5324 5.0293 26.1135 5.59668 26.1135 6.4375 C 26.1135 7.29199 25.5666 7.83203 24.6437 7.83203 H 23.174 z M 34.8154 13.1709 C 37.8027 13.1709 39.6825 11.2158 39.6825 8.07129 C 39.6825 4.92676 37.8027 2.96484 34.8154 2.96484 C 31.828 2.96484 29.9413 4.92676 29.9413 8.07129 C 29.9413 11.2158 31.8212 13.1709 34.8154 13.1709 z M 34.8154 11.1338 C 33.4071 11.1338 32.498 9.94434 32.498 8.07129 C 32.498 6.19141 33.414 5.00195 34.8154 5.00195 C 36.2167 5.00195 37.1327 6.19141 37.1327 8.07129 C 37.1327 9.94434 36.2167 11.1338 34.8154 11.1338 z M 42.444 13.1504 C 43.237 13.1504 43.695 12.6787 43.695 11.8447 V 9.32227 H 46.5934 C 47.2428 9.32227 47.6393 8.9668 47.6393 8.36523 C 47.6393 7.75684 47.2291 7.40137 46.5934 7.40137 H 43.695 V 5.15918 H 46.9147 C 47.5778 5.15918 48.0289 4.79004 48.0289 4.14746 C 48.0289 3.50488 47.5914 3.13574 46.9147 3.13574 H 42.444 C 41.651 3.13574 41.1862 3.61426 41.1862 4.44824 V 11.8447 C 41.1862 12.6787 41.651 13.1504 42.444 13.1504 z M 50.5443 13.1504 C 51.3373 13.1504 51.7953 12.6787 51.7953 11.8447 V 4.29102 C 51.7953 3.45703 51.3373 2.98535 50.5443 2.98535 C 49.7513 2.98535 49.2865 3.45703 49.2865 4.29102 V 11.8447 C 49.2865 12.6787 49.7513 13.1504 50.5443 13.1504 z M 54.8302 13 H 59.171 C 59.8477 13 60.2852 12.6309 60.2852 11.9883 C 60.2852 11.3457 59.8409 10.9766 59.171 10.9766 H 56.0811 V 4.29102 C 56.0811 3.45703 55.6231 2.98535 54.8302 2.98535 C 54.0372 2.98535 53.5723 3.45703 53.5723 4.29102 V 11.6875 C 53.5723 12.5215 54.0372 13 54.8302 13 z M 62.8484 13 H 67.367 C 68.0438 13 68.4813 12.6309 68.4813 11.9883 C 68.4813 11.3457 68.0301 10.9766 67.367 10.9766 H 64.0994 V 8.9668 H 67.2166 C 67.8387 8.9668 68.2283 8.625 68.2283 8.04395 C 68.2283 7.46289 67.825 7.12109 67.2166 7.12109 H 64.0994 V 5.15918 H 67.367 C 68.0301 5.15918 68.4813 4.79004 68.4813 4.14746 C 68.4813 3.50488 68.0438 3.13574 67.367 3.13574 H 62.8484 C 62.0555 3.13574 61.5906 3.61426 61.5906 4.44824 V 11.6875 C 61.5906 12.5215 62.0555 13 62.8484 13 z" fill="#ffffff" />
                          <circle cx="40" cy="29" r="3" fill="#ff3399" />
                        </svg>
                        <text text-anchor="middle" alignment-baseline="central" font-size="17" font-family="ArialMT" font-style="normal" text-decoration="none" template-id="node-text" x="33.5" y="26" fill="#446ab3" />
                      </g>
                    </svg>
                  </svg>
                </g>
              </svg>
            </svg>
          </g>
        </svg>
      </svg>
    </g>
  </svg>
</svg>
